<svg version="1.1" id="Layer_1" xmlns="http://www.w3.org/2000/svg" xmlns:xlink="http://www.w3.org/1999/xlink" x="0px" y="0px"
	 width="100%" viewBox="0 0 1024 1024" enable-background="new 0 0 1024 1024" xml:space="preserve">
<path fill="#000000" opacity="1.000000" stroke="none" 
	d="
M485.904144,138.598709 
	C501.164185,137.512497 515.975830,138.675171 530.788452,138.606110 
	C564.253662,138.450043 597.720947,138.684357 631.185242,138.451263 
	C647.172913,138.339890 663.174377,137.401337 679.133606,138.636124 
	C693.942505,139.781921 705.310974,152.585022 705.327148,167.649567 
	C705.376709,213.812744 705.352661,259.976013 705.353333,306.139221 
	C705.353943,348.136139 705.004944,390.137054 705.493958,432.128265 
	C705.734314,452.772156 689.942749,473.473297 666.566284,478.300079 
	C663.140015,479.007507 659.669434,479.284180 656.151306,479.279755 
	C632.486450,479.250031 608.821594,479.303009 585.156677,479.305969 
	C578.516907,479.306793 578.354492,479.057953 580.309753,472.923859 
	C580.663757,471.813446 581.412109,470.677002 581.328003,469.603607 
	C580.819641,463.119141 584.539490,462.681793 589.743652,462.732544 
	C612.406311,462.953583 635.073059,462.903534 657.737244,462.773865 
	C676.212158,462.668121 689.647217,448.911194 689.649109,430.366760 
	C689.654541,376.537384 689.597839,322.707855 689.731873,268.878815 
	C689.745422,263.446075 687.967346,259.343018 684.219788,255.565155 
	C658.518982,229.656082 632.869934,203.695038 607.330200,177.627319 
	C603.687378,173.909180 599.849487,172.269226 594.560242,172.279144 
	C518.899353,172.420746 443.238190,172.373550 367.577087,172.378387 
	C348.399567,172.379608 334.347107,186.315674 334.346283,205.339966 
	C334.343109,280.167786 334.336182,354.995636 334.361633,429.823456 
	C334.366852,445.179779 343.961731,458.169525 357.919342,462.088257 
	C360.712738,462.872498 363.524384,462.809021 366.342010,462.812225 
	C390.340210,462.839630 414.338867,462.903839 438.336243,462.760498 
	C442.830292,462.733673 445.620209,463.361084 445.613678,468.846893 
	C445.610077,471.842957 447.242798,474.840942 448.070740,477.614136 
	C446.535400,479.832489 444.542358,479.287384 442.807739,479.287994 
	C400.977539,479.302856 359.146729,479.401886 317.317352,479.207886 
	C294.233521,479.100800 275.039307,466.385437 267.265594,446.668549 
	C265.543030,442.299500 264.633820,437.796204 264.635498,433.049347 
	C264.672028,328.890320 264.657288,224.731293 264.671051,120.572266 
	C264.673248,103.962135 277.391388,90.852531 293.969604,90.794807 
	C330.799683,90.666580 367.630585,90.743607 404.461090,90.801407 
	C411.429382,90.812340 417.454102,93.352333 422.360260,98.374077 
	C429.812958,106.002312 437.151398,113.745720 444.729187,121.247467 
	C455.978638,132.384079 469.498138,138.406784 485.904144,138.598709 
z"/>
<path fill="#000000" opacity="1.000000" stroke="none" 
	d="
M688.552124,686.920471 
	C663.178284,693.737366 641.556885,685.322205 630.432190,664.593140 
	C616.535583,638.699463 627.785095,607.444885 655.210999,596.740601 
	C660.270996,594.765625 662.186951,592.289307 661.777405,586.957458 
	C661.319336,580.993225 661.698975,574.966858 661.655212,568.968018 
	C661.610840,562.875977 661.095520,562.301575 655.070251,562.382996 
	C634.748840,562.657715 614.429382,563.146851 594.107361,563.282349 
	C572.787170,563.424438 551.453308,563.746948 530.160950,562.283752 
	C525.528625,561.965454 524.004150,563.547058 524.247437,568.176086 
	C524.605591,574.989624 524.546814,581.844666 524.260376,588.665039 
	C524.093079,592.647583 525.482422,594.488831 529.298035,595.889771 
	C545.559326,601.859985 556.264587,613.227173 560.697754,630.112793 
	C568.389954,659.411926 545.455322,688.474548 515.224487,689.594482 
	C489.020233,690.565125 463.027405,668.584656 465.852386,636.766418 
	C467.541443,617.742676 478.489075,604.382812 495.999878,597.158142 
	C501.892914,594.726685 503.722198,591.297791 503.638916,585.661072 
	C503.552795,579.829956 503.396820,573.984375 503.702728,568.167847 
	C503.939606,563.664185 502.580322,561.998352 497.806458,562.256165 
	C465.675720,563.992065 433.514099,563.336731 401.361145,563.090881 
	C391.370270,563.014465 381.376587,562.744934 371.394592,562.320251 
	C366.840088,562.126465 365.083710,563.868042 365.232513,568.420105 
	C365.461090,575.411560 365.454651,582.421692 365.217834,589.412781 
	C365.095001,593.039062 366.558868,594.632263 369.870544,595.907959 
	C387.153137,602.565552 398.468414,614.782349 401.700684,633.204529 
	C407.071838,663.817078 383.638428,687.913086 356.878571,689.470459 
	C326.973999,691.210876 304.173492,666.536499 305.776215,638.738464 
	C306.927094,618.777405 317.496582,604.578186 335.815643,597.036743 
	C342.064148,594.464355 343.613953,590.823364 343.599609,585.121643 
	C343.581604,577.956116 343.611206,570.790405 343.652740,563.624939 
	C343.727631,550.706299 352.319733,541.733337 365.172699,541.730591 
	C401.666779,541.722778 438.161041,541.885803 474.654877,542.056213 
	C482.813446,542.094360 490.973328,542.364807 499.126892,542.677551 
	C502.290680,542.798889 503.639587,541.729187 503.603699,538.408813 
	C503.495544,528.412048 503.492767,518.410461 503.701050,508.415985 
	C503.776642,504.789032 501.422302,504.047729 498.865173,503.123322 
	C486.873840,498.788177 477.273773,491.533264 470.618286,480.464142 
	C452.481018,450.299042 471.435974,410.856476 506.153320,405.456329 
	C530.664612,401.643738 557.581909,417.676514 562.770264,444.461761 
	C567.304688,467.871063 556.680725,491.811462 530.776001,502.137970 
	C525.609192,504.197632 523.984253,506.717102 524.225037,511.965088 
	C524.614136,520.446289 524.537415,528.964600 524.255249,537.453918 
	C524.120972,541.493774 525.630798,542.778564 529.431702,542.667542 
	C540.919189,542.331909 552.410522,542.011719 563.901794,541.950317 
	C595.563232,541.781372 627.225342,541.718933 658.887268,541.671753 
	C674.812805,541.647949 683.320679,550.176270 683.346130,566.030701 
	C683.358704,573.862976 683.474670,581.698059 683.293335,589.526123 
	C683.216187,592.855225 684.343384,594.548706 687.564575,595.762939 
	C708.649475,603.711121 720.143860,619.272278 720.750427,641.588623 
	C721.237915,659.523438 711.285522,676.233521 693.059143,685.026062 
	C691.713379,685.675293 690.304199,686.193115 688.552124,686.920471 
z"/>
<path fill="#000000" opacity="1.000000" stroke="none" 
	d="
M521.000122,351.638428 
	C558.493713,351.638336 595.487366,351.621246 632.480957,351.652893 
	C639.989197,351.659332 643.612488,355.245331 643.334351,362.125854 
	C643.138367,366.974213 639.908508,370.584778 635.066589,371.241669 
	C633.754395,371.419617 632.404968,371.348816 631.072632,371.348907 
	C551.253052,371.353577 471.433472,371.357056 391.613892,371.349060 
	C384.008087,371.348297 380.726044,369.345032 379.165680,363.886932 
	C377.488739,358.021118 381.463013,352.180695 387.524811,351.690277 
	C389.181152,351.556274 390.855804,351.638916 392.522064,351.638855 
	C435.181396,351.637360 477.840729,351.638184 521.000122,351.638428 
z"/>
<path fill="#000000" opacity="1.000000" stroke="none" 
	d="
M590.716492,197.771851 
	C594.690552,196.860077 597.587891,198.110046 600.111938,200.650558 
	C621.120972,221.796799 642.131775,242.941406 663.179749,264.048859 
	C666.194824,267.072449 667.332642,270.557404 665.750977,274.488922 
	C664.263550,278.186035 660.860291,278.425262 657.350708,278.434509 
	C640.209778,278.479736 623.059692,279.764618 605.931885,278.349152 
	C594.720154,277.422607 586.729492,268.600494 586.674866,257.304321 
	C586.591248,239.983185 586.678833,222.661255 586.631165,205.339828 
	C586.622375,202.159637 587.004395,199.321091 590.716492,197.771851 
z"/>
<path fill="#000000" opacity="1.000000" stroke="none" 
	d="
M369.012024,864.660767 
	C375.815918,863.635010 379.424683,865.924255 381.663483,872.340149 
	C384.942322,881.736694 389.396729,890.724670 393.398865,899.865479 
	C394.117889,901.507690 394.601227,903.333008 396.850037,905.031738 
	C399.833466,898.265015 402.756500,891.698669 405.625488,885.108765 
	C408.015533,879.619019 410.457886,874.147217 412.649445,868.577820 
	C413.800629,865.652283 415.619141,864.563965 418.719116,864.613708 
	C433.461639,864.850037 431.240417,863.087708 431.321381,876.970642 
	C431.431122,895.783813 431.356018,914.598145 431.343933,933.411987 
	C431.339600,940.159729 431.205505,940.268982 424.250366,940.265442 
	C423.417908,940.265015 422.579712,940.188171 421.753967,940.259827 
	C417.336243,940.643188 415.462341,938.878296 415.572906,934.225952 
	C415.818146,923.909180 415.646240,913.582581 415.644531,903.259949 
	C415.644226,901.468872 415.644501,899.677856 415.644501,897.178162 
	C413.350037,898.456787 412.940155,900.035889 412.336548,901.460815 
	C409.352875,908.504639 406.238953,915.497437 403.447784,922.616882 
	C402.061218,926.153564 399.764862,927.241821 396.154999,927.234863 
	C392.566345,927.227966 390.773529,925.603638 389.476288,922.459534 
	C386.622772,915.543518 383.518524,908.730408 380.470947,901.895569 
	C379.891449,900.595886 379.588593,899.055420 377.349976,897.783936 
	C377.349976,905.927856 377.352631,913.497864 377.349060,921.067871 
	C377.346680,926.062622 377.285950,931.058044 377.346741,936.051941 
	C377.382477,938.987549 376.027466,940.115295 373.135986,940.335510 
	C362.163147,941.171143 361.712982,940.846252 361.701355,930.122925 
	C361.680237,910.643127 361.664490,891.163391 361.668152,871.683594 
	C361.669434,864.757263 361.698151,864.757263 369.012024,864.660767 
z"/>
<path fill="#000000" opacity="1.000000" stroke="none" 
	d="
M468.999878,312.392456 
	C442.032593,312.384247 415.565216,312.420288 389.098175,312.340912 
	C380.972565,312.316528 376.289520,304.831512 379.845764,297.855957 
	C381.826843,293.970032 385.216858,292.670837 389.339691,292.677917 
	C397.496216,292.691895 405.652832,292.677551 413.809387,292.677490 
	C458.587341,292.677216 503.365295,292.671692 548.143250,292.684387 
	C555.019531,292.686340 558.889709,295.745178 559.321045,301.398285 
	C559.856445,308.415466 556.029907,312.333588 548.402222,312.347046 
	C522.101501,312.393433 495.800659,312.381805 468.999878,312.392456 
z"/>
<path fill="#000000" opacity="1.000000" stroke="none" 
	d="
M417.000000,233.027985 
	C450.830994,233.039200 484.162018,233.035507 517.492920,233.084778 
	C520.816895,233.089691 524.157227,233.264771 527.460144,233.629791 
	C532.590759,234.196808 535.629700,237.366058 536.152527,242.344620 
	C536.585388,246.466309 533.654602,250.796768 529.408386,252.396744 
	C527.335571,253.177795 525.198425,253.299240 523.018616,253.298676 
	C479.188293,253.287323 435.357941,253.307877 391.527649,253.272446 
	C381.882263,253.264648 376.463287,246.585388 379.835175,239.070877 
	C381.334045,235.730469 383.899536,234.031204 387.540833,233.568375 
	C397.181549,232.342972 406.850952,233.358215 417.000000,233.027985 
z"/>
<path fill="#000000" opacity="1.000000" stroke="none" 
	d="
M306.473846,807.453369 
	C302.660095,800.869080 299.024170,794.605469 295.388245,788.341797 
	C295.035614,788.441711 294.683014,788.541687 294.330383,788.641602 
	C294.330383,800.563049 294.408142,812.485352 294.270630,824.405212 
	C294.239838,827.075195 295.737061,830.712097 292.659485,832.198242 
	C288.871765,834.027222 284.527924,833.447815 280.452759,832.446106 
	C278.606628,831.992371 278.683441,830.232422 278.682587,828.733765 
	C278.669434,806.080322 278.684082,783.426819 278.653290,760.773376 
	C278.649719,758.142151 279.648346,756.888733 282.423584,756.662903 
	C289.086792,756.120544 294.196014,756.881104 297.856354,764.111267 
	C304.589447,777.410828 312.643890,790.041504 320.706146,803.911926 
	C320.706146,789.877563 320.696503,776.950562 320.709900,764.023499 
	C320.717438,756.741150 320.785004,756.687866 327.852509,756.666870 
	C329.185028,756.662903 330.522614,756.750000 331.849121,756.662598 
	C334.974945,756.456177 336.378876,757.723267 336.368378,760.992188 
	C336.295593,783.645386 336.301300,806.299072 336.341827,828.952393 
	C336.347168,831.946838 334.941925,832.894104 332.115692,833.210938 
	C324.776733,834.033997 319.334686,832.363708 316.159760,824.752075 
	C313.679260,818.805359 309.870300,813.412720 306.473846,807.453369 
z"/>
<path fill="#000000" opacity="1.000000" stroke="none" 
	d="
M889.650391,880.003784 
	C889.650391,877.839600 889.650818,876.174622 889.650940,874.509705 
	C889.651733,864.775818 893.144226,862.278931 902.960449,864.737366 
	C905.867126,865.465332 905.298767,867.607483 905.311340,869.459106 
	C905.379150,879.448242 905.349121,889.438049 905.349487,899.427612 
	C905.349854,911.248596 905.218811,923.071716 905.414307,934.889404 
	C905.483459,939.068604 903.855652,940.133362 899.861633,940.428772 
	C893.084045,940.930176 888.910400,938.824951 885.617065,932.454468 
	C878.984131,919.624146 871.357300,907.307617 863.317200,894.890381 
	C863.317200,900.101501 863.315674,905.312561 863.317566,910.523682 
	C863.320007,917.349854 863.324951,924.176086 863.329102,931.002258 
	C863.334534,939.854919 858.778503,942.968933 850.110657,940.128235 
	C847.256836,939.192871 847.676453,936.882507 847.669861,934.789551 
	C847.631958,922.802185 847.649902,910.814636 847.648499,898.827148 
	C847.647583,891.002014 847.647156,883.176819 847.644348,875.351685 
	C847.640381,864.232483 849.572083,862.702820 860.632812,864.683289 
	C863.220337,865.146667 864.104980,867.098633 865.161438,868.904785 
	C872.219604,880.971008 879.203735,893.080444 886.225403,905.167908 
	C887.043457,906.576172 887.944641,907.936096 889.650696,910.669922 
	C889.650696,899.621887 889.650696,890.062500 889.650391,880.003784 
z"/>
<path fill="#000000" opacity="1.000000" stroke="none" 
	d="
M496.656250,920.998657 
	C496.656006,903.845703 496.796234,887.190491 496.565308,870.540405 
	C496.501343,865.928711 498.050629,864.741943 502.555450,864.484192 
	C508.945618,864.118591 512.882324,865.826416 515.910583,871.940979 
	C521.516724,883.261108 528.120239,894.087769 534.328979,905.108337 
	C535.042297,906.374451 535.886719,907.566711 537.659973,908.626404 
	C537.659973,905.051575 537.660828,901.476807 537.659851,897.901978 
	C537.657898,890.408020 537.653503,882.914001 537.652649,875.420044 
	C537.651428,863.743347 538.082764,863.424988 549.823364,864.648804 
	C552.356384,864.912781 553.335327,865.951782 553.332886,868.394958 
	C553.310608,890.876709 553.304199,913.358582 553.349976,935.840210 
	C553.355957,938.780151 552.020142,939.896179 549.182678,940.211609 
	C542.681091,940.934265 537.912170,939.669067 534.687988,932.893921 
	C529.906311,922.845886 524.002258,913.330627 518.542786,903.607239 
	C517.098999,901.035828 515.876648,898.289185 513.625244,896.189880 
	C511.560791,897.487427 512.377441,899.319946 512.366394,900.804199 
	C512.284546,911.794800 512.164612,922.789062 512.376282,933.776001 
	C512.466431,938.456665 510.865692,940.699402 506.036896,940.265259 
	C504.383972,940.116638 502.708374,940.229614 501.043488,940.201660 
	C497.955261,940.149841 496.572601,938.621155 496.644836,935.486511 
	C496.752258,930.826172 496.662445,926.161255 496.656250,920.998657 
z"/>
<path fill="#000000" opacity="1.000000" stroke="none" 
	d="
M482.001587,756.671082 
	C488.295105,756.984985 494.092560,756.242249 499.905060,757.425537 
	C509.023132,759.281738 515.618896,763.925537 517.988220,773.149902 
	C520.618286,783.389526 519.887939,793.257324 511.210632,800.560669 
	C507.682953,803.529724 507.661102,805.578125 509.826721,809.181946 
	C513.248840,814.876892 516.208862,820.858887 519.185059,826.809143 
	C521.437805,831.313171 520.522339,832.553101 515.488037,833.162109 
	C508.544952,834.002075 503.339752,832.485840 500.405060,825.188293 
	C498.314301,819.989319 494.644562,815.447144 492.198212,810.362366 
	C490.241760,806.295837 487.119843,805.792053 483.531342,806.611877 
	C480.002106,807.418152 481.336182,810.634521 481.248627,812.900146 
	C481.049530,818.053894 481.122406,823.218750 481.116028,828.379089 
	C481.111969,831.660339 479.562714,833.070801 476.232056,833.269714 
	C465.196686,833.928406 464.762482,833.612366 464.749298,822.429443 
	C464.726166,802.785522 464.707153,783.141541 464.722046,763.497620 
	C464.726929,757.063477 465.115692,756.715881 471.514679,756.677124 
	C474.844055,756.656921 478.173645,756.672119 482.001587,756.671082 
M503.346405,783.790222 
	C503.885071,775.797791 500.214691,771.524963 492.101959,771.448914 
	C479.494049,771.330872 481.234009,769.969604 481.268494,781.679688 
	C481.301544,792.897095 479.658813,791.631897 491.421265,791.674500 
	C496.809326,791.694031 501.368988,790.439392 503.346405,783.790222 
z"/>
<path fill="#000000" opacity="1.000000" stroke="none" 
	d="
M596.664185,825.852539 
	C596.663330,804.571838 596.775208,783.771057 596.575745,762.973267 
	C596.530579,758.269409 597.908142,756.303040 602.791626,756.620361 
	C612.724609,757.265686 622.741333,755.633362 632.637085,757.625305 
	C641.818176,759.473267 648.056519,764.702393 650.073303,773.962097 
	C652.234314,783.884094 651.286011,793.474976 642.828613,800.302429 
	C639.061096,803.343811 638.978821,805.502136 641.257812,809.223206 
	C644.728882,814.890747 647.829407,820.791992 650.934204,826.674744 
	C653.226562,831.018005 652.573059,832.106262 647.691833,832.847534 
	C638.525452,834.239563 636.764954,833.413940 632.101807,825.296021 
	C629.202393,820.248291 626.381714,815.155212 623.543579,810.072510 
	C622.130127,807.541016 620.202759,806.273804 617.104614,806.312866 
	C613.786865,806.354797 612.186951,807.336914 612.286926,810.904175 
	C612.449890,816.723206 612.216187,822.552673 612.342041,828.373596 
	C612.410767,831.553528 611.054565,832.997742 607.951721,832.992981 
	C606.454468,832.990662 604.957092,833.064575 603.459839,833.059448 
	C596.968201,833.037354 596.799255,832.864075 596.664185,825.852539 
M635.372864,780.037476 
	C632.979248,773.351379 630.268433,771.453491 622.643066,771.409241 
	C610.755371,771.340210 612.352173,770.577026 612.378174,781.345886 
	C612.403015,791.649963 610.227356,791.862244 622.929382,791.636108 
	C631.253052,791.487915 634.176147,788.939392 635.372864,780.037476 
z"/>
<path fill="#000000" opacity="1.000000" stroke="none" 
	d="
M772.225830,926.608154 
	C764.915527,913.813293 764.599609,900.498230 768.371094,887.187927 
	C772.754089,871.719421 787.213501,861.838684 802.839905,863.136292 
	C821.739258,864.705750 833.277039,876.554932 835.521912,894.290466 
	C836.375549,901.034485 836.247437,907.579834 834.766846,914.081055 
	C831.597473,927.996948 823.250244,937.305176 809.083496,940.204590 
	C794.372681,943.215454 781.757996,939.316528 772.225830,926.608154 
M791.991699,879.319885 
	C788.107483,881.903503 785.383179,885.416077 783.941711,889.829895 
	C781.614746,896.955261 781.465271,904.295105 783.153687,911.483337 
	C785.539368,921.640259 791.848816,926.592102 801.418091,926.641357 
	C810.281677,926.686951 817.146240,921.220947 819.176514,911.413696 
	C820.522217,904.912964 820.405518,898.165405 818.767517,891.603760 
	C815.774902,879.615540 804.147156,874.009399 791.991699,879.319885 
z"/>
<path fill="#000000" opacity="1.000000" stroke="none" 
	d="
M152.138458,900.160461 
	C151.818588,907.750244 151.501572,914.874573 149.311234,921.762329 
	C146.818542,929.600769 141.774994,934.757080 133.952011,937.516113 
	C122.455910,941.570557 110.611275,940.136230 98.862953,940.146912 
	C95.604141,940.149841 95.701805,937.298096 95.696060,934.935120 
	C95.673409,925.617615 95.677322,916.300171 95.675102,906.982666 
	C95.672157,894.670288 95.829651,882.354797 95.589600,870.047058 
	C95.501419,865.525696 97.014137,863.706970 101.578354,863.798279 
	C110.051292,863.967896 118.520401,863.683716 126.982452,864.648926 
	C139.664261,866.095459 149.833160,877.280396 151.305634,891.767944 
	C151.574371,894.412048 151.848099,897.055603 152.138458,900.160461 
M111.384392,916.389771 
	C111.402451,925.225342 111.857590,925.624756 120.723816,924.584900 
	C129.485367,923.557312 133.637909,920.660400 135.280533,914.059937 
	C136.403076,909.549194 136.960403,904.943359 136.640274,900.257568 
	C135.537216,884.112183 130.660858,879.154663 116.471962,879.284058 
	C112.555588,879.319824 111.237236,880.670166 111.310036,884.541077 
	C111.503548,894.830200 111.380760,905.125244 111.384392,916.389771 
z"/>
<path fill="#000000" opacity="1.000000" stroke="none" 
	d="
M177.382675,937.914673 
	C165.943787,931.133545 161.856995,920.468872 160.842590,908.449890 
	C160.274109,901.714172 160.348816,894.889526 161.558365,888.089478 
	C164.009796,874.307556 174.754730,864.017639 189.843384,863.002686 
	C202.808655,862.130554 213.754257,867.802002 219.020523,882.454590 
	C223.447647,894.772522 223.649155,907.566284 219.698914,920.132446 
	C213.856644,938.717407 196.679871,945.958374 177.382675,937.914673 
M178.990265,885.651733 
	C175.186584,895.312378 175.373459,905.198059 177.893097,915.022888 
	C179.648041,921.865906 184.675339,925.487488 191.318512,925.660034 
	C197.639069,925.824219 202.342926,922.454651 204.452332,915.540833 
	C206.972412,907.281067 206.964783,898.799011 205.178467,890.396057 
	C203.973267,884.726807 201.162704,879.884338 195.001358,878.659790 
	C188.614304,877.390442 183.144684,879.378723 178.990265,885.651733 
z"/>
<path fill="#000000" opacity="1.000000" stroke="none" 
	d="
M701.456848,810.444397 
	C704.269592,809.428223 705.561340,809.882202 706.770935,812.586243 
	C710.064392,819.948120 721.079346,822.475098 727.669800,817.732300 
	C731.878845,814.703247 731.987915,809.660706 727.934570,806.339844 
	C724.748596,803.729553 720.805542,802.802917 717.057678,801.476685 
	C713.455811,800.202148 709.781128,799.132996 706.137024,797.978088 
	C698.197021,795.461731 692.505676,790.686951 691.772644,781.964172 
	C690.958557,772.276184 694.329102,764.277649 702.967590,759.089966 
	C713.864502,752.546143 731.441956,754.810486 740.036377,763.886108 
	C741.506104,765.438110 742.811646,767.239807 743.806335,769.129761 
	C746.663147,774.557556 745.577209,776.467346 739.403992,777.197876 
	C737.753174,777.393250 735.987732,777.084778 734.435791,777.547424 
	C731.657043,778.375854 730.385864,777.408569 728.976685,774.961792 
	C725.885681,769.594971 718.612366,767.740845 713.219849,770.483093 
	C710.299561,771.968079 708.636536,774.398010 708.460449,777.603638 
	C708.296631,780.585449 710.158447,782.500366 712.589722,783.948608 
	C716.497192,786.276001 720.802246,787.532349 725.130310,788.769531 
	C727.845825,789.545776 730.515686,790.486877 733.190308,791.399902 
	C741.560120,794.257019 746.841614,799.851257 747.187073,808.881042 
	C747.528870,817.813538 743.859375,825.172913 736.223938,830.027100 
	C725.474304,836.861145 707.969910,835.710327 698.053589,827.766663 
	C694.304565,824.763428 691.939697,820.855042 690.585632,816.224182 
	C689.709717,813.228455 690.485657,811.846375 693.650391,811.608032 
	C696.127869,811.421448 698.580505,810.904419 701.456848,810.444397 
z"/>
<path fill="#000000" opacity="1.000000" stroke="none" 
	d="
M349.475189,865.546997 
	C350.976562,876.677612 350.241516,887.502502 350.253723,898.307251 
	C350.262146,905.764526 351.161865,913.271362 349.403625,920.696289 
	C346.230225,934.097351 335.919495,941.912109 322.059875,941.244324 
	C307.693512,940.552246 298.373840,932.474792 296.661041,918.580078 
	C294.616699,901.995667 296.108032,885.308716 295.800415,868.670471 
	C295.752655,866.085754 297.035400,864.605469 299.773224,864.680481 
	C300.105927,864.689575 300.439667,864.672852 300.772583,864.658936 
	C312.135864,864.183960 312.109833,864.183899 312.141205,875.483887 
	C312.178711,888.979248 312.080444,902.479004 312.402557,915.968201 
	C312.595276,924.038635 318.701782,928.347412 326.410339,926.454529 
	C331.446655,925.217834 334.515259,920.524292 334.599518,913.036072 
	C334.751343,899.541382 334.651001,886.043945 334.659760,872.547607 
	C334.664886,864.657898 334.668304,864.632751 342.719025,864.674255 
	C344.865326,864.685303 347.059540,864.329224 349.475189,865.546997 
z"/>
<path fill="#000000" opacity="1.000000" stroke="none" 
	d="
M677.204773,937.207764 
	C674.310364,942.819519 669.490479,939.554199 665.587402,940.170044 
	C662.696777,940.626099 661.758545,938.076904 660.911621,935.847595 
	C656.550049,924.367432 656.550598,924.367249 644.185120,924.367859 
	C632.692993,924.368408 632.692993,924.368408 629.033386,935.110718 
	C627.471069,939.696716 616.859436,942.522583 613.011108,939.396423 
	C611.010498,937.771362 612.331665,935.969849 612.857544,934.386353 
	C619.400635,914.682556 625.837769,894.940125 632.697083,875.345825 
	C637.162537,862.589844 633.886230,865.011963 648.237610,864.597717 
	C651.850342,864.493591 653.669556,865.851196 654.769958,869.197327 
	C662.184631,891.744568 669.711731,914.254883 677.204773,937.207764 
M646.286987,909.652771 
	C648.458252,909.282532 652.418091,910.686523 651.399353,906.496704 
	C649.674561,899.403198 647.079712,892.521179 644.850647,885.550293 
	C642.263733,890.797729 640.697754,895.859314 639.176819,900.934387 
	C636.564209,909.652161 636.576050,909.655701 646.286987,909.652771 
z"/>
<path fill="#000000" opacity="1.000000" stroke="none" 
	d="
M250.016418,771.377502 
	C249.021439,771.376587 248.521576,771.367798 248.022003,771.376404 
	C235.747345,771.586914 237.499252,769.017761 237.301163,782.784973 
	C237.256989,785.855469 238.562347,786.924255 241.479279,786.871338 
	C246.807785,786.774658 252.142075,786.747009 257.468994,786.884033 
	C262.561310,787.015015 263.112854,788.155212 263.211639,795.057373 
	C263.272858,799.334656 262.097137,801.668213 257.281464,801.392822 
	C252.300659,801.108032 247.284988,801.479614 242.295380,801.285889 
	C238.781296,801.149353 237.123688,802.130188 237.241684,806.029114 
	C237.662094,819.918884 235.347397,817.536133 248.743073,817.750427 
	C253.072861,817.819763 257.406494,817.843445 261.734955,817.742737 
	C265.282562,817.660339 266.995483,819.305481 267.065186,822.789246 
	C267.085175,823.788391 267.111511,824.787781 267.107452,825.786926 
	C267.079254,832.717773 266.639587,833.182556 259.758270,833.173706 
	C248.930984,833.159729 238.101715,832.973999 227.277374,833.135498 
	C222.646347,833.204590 220.728760,831.680237 220.773514,826.788879 
	C220.967026,805.635620 220.839050,784.479614 220.885712,763.324768 
	C220.899734,756.964478 221.254196,756.683167 227.776321,756.673584 
	C238.936813,756.657166 250.099304,756.791687 261.256775,756.608215 
	C265.182129,756.543701 266.453125,757.948730 266.445129,761.837158 
	C266.425507,771.368408 266.588654,771.369263 257.007996,771.378357 
	C254.842560,771.380371 252.677109,771.378052 250.016418,771.377502 
z"/>
<path fill="#000000" opacity="1.000000" stroke="none" 
	d="
M407.645996,763.100525 
	C407.037537,758.124084 408.809082,756.461975 413.484772,756.580078 
	C424.963623,756.870178 436.456726,756.803528 447.939697,756.612732 
	C452.065704,756.544189 453.852722,758.015320 453.352051,762.125610 
	C453.312073,762.453552 453.347839,762.790771 453.349884,763.123718 
	C453.400269,771.370728 453.400299,771.375793 445.307922,771.384766 
	C439.481628,771.391235 433.653870,771.458923 427.829620,771.348877 
	C424.709991,771.290039 423.275482,772.424927 423.320007,775.713318 
	C423.498871,788.929138 421.995331,786.609863 433.925079,786.855530 
	C437.419586,786.927490 440.916595,786.934143 444.411804,786.899902 
	C447.938995,786.865295 449.697937,788.410339 449.355255,792.065430 
	C449.262421,793.055298 449.244904,794.073853 449.364624,795.058350 
	C449.940033,799.790161 448.022369,801.714600 443.159241,801.410461 
	C438.019409,801.088928 432.840424,801.453125 427.683563,801.321533 
	C424.421600,801.238220 423.263947,802.646362 423.323792,805.808716 
	C423.592621,820.015686 421.496643,817.502075 434.559296,817.778015 
	C439.051941,817.872925 443.549225,817.862610 448.042328,817.783142 
	C451.756470,817.717407 453.362396,819.203796 453.416351,823.126404 
	C453.555573,833.244202 453.701965,833.254822 443.517822,833.228760 
	C433.529968,833.203125 423.539490,832.996887 413.555542,833.173584 
	C408.988861,833.254395 407.521698,831.561951 407.563019,827.010071 
	C407.754944,805.870667 407.646057,784.728455 407.645996,763.100525 
z"/>
<path fill="#000000" opacity="1.000000" stroke="none" 
	d="
M789.911743,786.841614 
	C790.730286,786.841858 791.063293,786.839539 791.396362,786.842346 
	C798.557556,786.902771 802.166199,792.880188 799.015381,799.411011 
	C798.107361,801.293152 796.427612,801.280945 794.761414,801.289246 
	C789.099609,801.317383 783.435974,801.392395 777.776428,801.278198 
	C774.608826,801.214294 773.265381,802.434387 773.325256,805.686951 
	C773.592896,820.233276 771.467773,817.437744 784.970398,817.717529 
	C789.464783,817.810669 793.963135,817.789673 798.458557,817.732666 
	C801.688477,817.691650 803.239624,818.904724 803.395569,822.409058 
	C803.874634,833.176208 803.988953,833.153076 793.007690,833.099548 
	C783.182678,833.051697 773.355591,832.929443 763.533264,833.084229 
	C759.410522,833.149170 757.536011,831.990845 757.573364,827.439392 
	C757.752319,805.625671 757.737915,783.809021 757.577881,761.994995 
	C757.547302,757.826050 758.985474,756.519958 763.063477,756.592102 
	C774.716797,756.798523 786.378540,756.803162 798.031860,756.596741 
	C802.252380,756.522034 803.798828,758.158630 803.364014,762.174683 
	C803.239258,763.326904 803.231079,764.517151 803.364563,765.667358 
	C803.874451,770.059875 801.928223,771.587952 797.609131,771.415588 
	C791.124756,771.156799 784.616394,771.513794 778.130371,771.276489 
	C774.348022,771.138000 773.210693,772.601990 773.297546,776.234741 
	C773.592834,788.594971 771.860168,786.658997 783.930786,786.841675 
	C785.762207,786.869385 787.594360,786.842834 789.911743,786.841614 
z"/>
<path fill="#000000" opacity="1.000000" stroke="none" 
	d="
M441.870789,880.010498 
	C441.894318,864.659058 441.894318,864.659546 456.538208,864.660034 
	C464.526428,864.660278 472.514648,864.643066 480.502838,864.662842 
	C487.322266,864.679749 487.340179,864.716370 487.343597,871.754944 
	C487.343994,872.587036 487.279633,873.423523 487.343048,874.250488 
	C487.625397,877.933899 485.790955,879.329102 482.272705,879.285767 
	C475.949799,879.207764 469.619720,879.436096 463.303070,879.224670 
	C459.501862,879.097473 457.894775,880.292664 457.990936,884.317383 
	C458.283478,896.562134 457.244049,894.450500 467.991699,894.645630 
	C471.651886,894.712036 475.317291,894.770569 478.974243,894.649475 
	C482.188110,894.543091 483.591461,895.936951 483.345184,899.112976 
	C483.281097,899.939758 483.347992,900.776306 483.346863,901.608398 
	C483.337799,908.278992 483.276276,908.349609 476.725098,908.372803 
	C471.898926,908.389893 467.070251,908.475342 462.247375,908.349854 
	C459.272949,908.272522 458.205200,909.494080 458.014618,912.447876 
	C457.225494,924.678345 457.147552,924.669617 469.086639,924.672791 
	C473.746307,924.674011 478.406067,924.715942 483.065643,924.701172 
	C485.955444,924.692017 487.124084,926.085205 487.358826,928.965942 
	C488.248169,939.877502 488.004852,940.220154 477.040955,940.192017 
	C467.555054,940.167725 458.068878,940.163513 448.583466,940.078796 
	C442.732483,940.026550 441.942413,939.247009 441.925751,933.429871 
	C441.875183,915.789368 441.884125,898.148682 441.870789,880.010498 
z"/>
<path fill="#000000" opacity="1.000000" stroke="none" 
	d="
M570.609131,758.984070 
	C581.516357,763.567444 586.568787,771.397705 586.062744,782.493958 
	C585.498535,794.865906 579.933960,802.106506 568.475769,805.631836 
	C562.801331,807.377625 556.995300,807.523621 551.175659,807.276428 
	C547.478271,807.119385 546.126831,808.506897 546.281860,812.210815 
	C546.511414,817.696106 546.263733,823.199646 546.351135,828.693359 
	C546.397705,831.619263 545.096619,833.022522 542.226807,833.080444 
	C541.727356,833.090576 541.228027,833.103088 540.728699,833.119141 
	C530.684509,833.442017 530.670471,833.430359 530.667786,823.569946 
	C530.662354,803.254211 530.768494,782.937439 530.570251,762.623657 
	C530.526062,758.096985 531.861816,756.336609 536.523315,756.601379 
	C547.768982,757.240051 559.178162,755.306702 570.609131,758.984070 
M565.466858,791.199097 
	C570.067444,788.487610 572.351562,784.105774 571.433960,779.751587 
	C570.402954,774.859436 567.217834,772.023376 561.475891,771.519836 
	C557.674500,771.186462 553.822815,771.436768 549.993713,771.407349 
	C547.534058,771.388489 546.324036,772.519714 546.349121,775.044189 
	C546.395447,779.706055 546.405396,784.369446 546.336487,789.030823 
	C546.299561,791.531677 547.333252,792.740356 549.892151,792.651672 
	C554.856628,792.479309 559.895691,793.302734 565.466858,791.199097 
z"/>
<path fill="#000000" opacity="1.000000" stroke="none" 
	d="
M231.877213,883.278442 
	C236.484879,871.882812 244.310272,865.022522 256.247498,863.033691 
	C269.572144,860.813782 283.524719,869.916443 286.873779,882.960510 
	C287.719666,886.255188 286.540924,887.650757 283.558350,888.222900 
	C281.925507,888.536072 280.287994,888.827271 278.661346,889.169861 
	C275.243744,889.889893 272.870636,889.437866 271.382202,885.487305 
	C269.394318,880.211121 264.956848,877.249084 259.274994,877.549316 
	C253.490204,877.854919 249.042343,881.037537 247.345322,886.671204 
	C244.202271,897.105225 244.251907,907.691345 247.783569,918.043030 
	C249.562393,923.256775 253.847534,926.156433 259.198273,926.401794 
	C264.566528,926.647949 268.610016,923.723206 271.506378,919.177368 
	C272.578674,917.494324 272.250092,914.230469 275.096680,914.462219 
	C279.033630,914.782837 283.057068,915.618652 286.395355,917.887634 
	C288.128357,919.065552 286.716248,921.019287 286.204712,922.488892 
	C282.387360,933.454407 271.302582,941.283508 259.823730,941.229431 
	C247.660568,941.172180 236.439285,933.417358 232.673965,921.989563 
	C228.511978,909.357849 228.523483,896.521667 231.877213,883.278442 
z"/>
<path fill="#000000" opacity="1.000000" stroke="none" 
	d="
M368.315674,833.070068 
	C363.927094,832.778198 363.685760,830.043396 363.692383,826.990845 
	C363.728180,810.522644 363.566010,794.052185 363.802979,777.587219 
	C363.871155,772.848694 362.457825,770.788269 357.593323,771.347656 
	C355.295074,771.611938 352.929169,771.533386 350.615448,771.345154 
	C348.463806,771.170166 345.444855,772.430908 344.575317,769.375610 
	C343.480316,765.528198 343.254333,761.461670 345.111328,757.709106 
	C345.767609,756.382935 347.466003,756.694702 348.763458,756.692932 
	C364.067291,756.672180 379.371460,756.734131 394.674774,756.641846 
	C398.081940,756.621338 399.312988,757.911377 399.403900,761.341492 
	C399.670807,771.410828 399.792389,771.366760 389.625610,771.391541 
	C379.072998,771.417236 380.161469,770.118286 380.090179,781.086914 
	C379.997223,795.392151 380.075348,809.698364 380.049133,824.004150 
	C380.032745,832.941650 379.817932,833.127991 370.763611,833.120422 
	C370.098267,833.119873 369.432922,833.103943 368.315674,833.070068 
z"/>
<path fill="#000000" opacity="1.000000" stroke="none" 
	d="
M702.890991,940.358032 
	C691.461853,940.254761 691.673035,941.690857 691.715332,929.402100 
	C691.766296,914.586060 691.630371,899.766785 691.924622,884.955811 
	C692.013428,880.488159 690.570923,878.966675 686.231018,879.372314 
	C683.096802,879.665283 679.905945,879.288818 676.749146,879.421265 
	C673.358154,879.563477 671.804565,878.053955 671.872253,874.719971 
	C671.902649,873.222412 671.926697,871.723389 671.894958,870.226257 
	C671.806580,866.057739 673.619812,864.498413 677.959106,864.569214 
	C692.604980,864.808289 707.257080,864.637939 721.906677,864.675110 
	C727.347351,864.688965 727.971436,865.697571 728.074158,872.805603 
	C728.135132,877.026672 727.383240,879.589111 722.067078,879.534302 
	C708.356079,879.393127 708.344360,879.633789 708.323975,893.422913 
	C708.303528,907.240234 708.239929,921.058044 708.339355,934.874573 
	C708.365173,938.465210 707.523987,940.788574 702.890991,940.358032 
z"/>
<path fill="#000000" opacity="1.000000" stroke="none" 
	d="
M570.898621,879.391113 
	C570.099548,879.391174 569.766846,879.392639 569.434143,879.391113 
	C561.641541,879.355286 558.276306,873.959229 561.417175,866.716309 
	C562.170959,864.978149 563.432068,864.689392 564.993774,864.688965 
	C580.630188,864.684509 596.266724,864.709106 611.903015,864.665039 
	C614.608582,864.657410 615.875427,865.954651 616.080811,868.510132 
	C616.160706,869.503540 616.187134,870.502869 616.197876,871.499939 
	C616.279541,879.101379 616.004150,879.382751 608.562073,879.391846 
	C596.343140,879.406799 596.339539,879.406799 596.329956,891.444702 
	C596.318665,905.584167 596.139343,919.726868 596.399719,933.861389 
	C596.494019,938.982178 594.567688,940.882324 589.677795,940.317566 
	C588.528503,940.184753 587.346558,940.226868 586.187622,940.305603 
	C582.185425,940.577576 580.557251,938.893311 580.599854,934.750183 
	C580.757385,919.447937 580.664307,904.143005 580.659302,888.839111 
	C580.656250,879.443726 580.651306,879.443726 570.898621,879.391113 
z"/>
<path fill="#000000" opacity="1.000000" stroke="none" 
	d="
M662.703979,796.000000 
	C662.723450,784.835876 662.689209,774.171204 662.786133,763.507751 
	C662.845093,757.025452 663.260315,756.701660 669.596863,756.664795 
	C678.997864,756.610107 679.120422,756.652588 679.146301,765.916626 
	C679.201843,785.745239 679.189087,805.574158 679.159119,825.402893 
	C679.148682,832.277710 678.742798,832.602783 671.696716,832.449829 
	C663.018616,832.261475 662.929321,832.262817 662.798218,823.493042 
	C662.663757,814.496887 662.728210,805.497803 662.703979,796.000000 
z"/>
<path fill="#000000" opacity="1.000000" stroke="none" 
	d="
M737.638672,871.111023 
	C737.056213,866.117798 738.879150,864.421387 743.539673,864.570068 
	C754.902710,864.932617 753.279236,863.579468 753.331177,874.534546 
	C753.425842,894.505310 753.229004,914.478149 753.445129,934.447021 
	C753.495728,939.119385 751.889832,940.881836 747.386597,940.340637 
	C746.237915,940.202637 745.045898,940.200500 743.896423,940.332703 
	C739.078613,940.886902 737.534912,938.734070 737.574768,934.005615 
	C737.750244,913.203796 737.642883,892.399658 737.638672,871.111023 
z"/>
</svg>